<?xml version="1.0" encoding="UTF-8"?>
<svg id="Layer_1" xmlns="http://www.w3.org/2000/svg" version="1.1" viewBox="0 0 314 312">
  <!-- Generator: Adobe Illustrator 29.4.0, SVG Export Plug-In . SVG Version: 2.1.0 Build 152)  -->
  <path d="M163,0c5.07,1.74,10.85.94,16.22,2.27,8.88,2.2,19.14,11.73,23.16,19.83,5.43,10.92,1.36,26.75,2.61,38.88h19.5c.47,0,7.31,2.9,8.53,3.47,29.95,14.13,17.68,52.45,20.43,78.55,25.62,7.49,45.79,18.25,41.09,49l-28.55,94.92c5.39.08,10.19.36,15.44-1.05,9.03-2.43,19.88-16.12,29.02-4.9,11.14,13.69-10.88,25.21-21.7,28.21-4.31,1.19-8.55,1.46-12.76,2.74h-8c-6.99-1.62-13.96-2.9-20.51-5.99-10.19-4.8-16.87-13.95-28.94-15.05-18.83-1.72-23.12,9.08-37.54,15.54-6.33,2.84-13.37,3.73-20,5.5-2.62-.19-5.39.27-8,0-28.86-2.96-40.84-32.39-70.67-16.17-19.01,10.34-22.91,17.33-47.7,15.04-12.57-1.16-43.51-12.03-31.48-29.21,8.71-12.43,20.57,1.92,29.41,4.29,5.25,1.41,10.05,1.13,15.44,1.05l-28.55-93.92c-6.5-29.75,16.13-43.21,41.09-49.99,3.12-23.4-7.22-48.93,8.95-69.03,3-3.72,13.4-12.98,18.01-12.98h21.5V27.49c0-4.73,10.21-15.89,14.08-18.91,7.71-6.01,15.24-7.81,24.92-8.58h15ZM181,60.98v-27.49c0-2.42-7.12-7.74-9.73-8.27-4.25-.87-25.29-.8-29.3.24-2.34.61-8.97,5.85-8.97,8.03v27.49h48ZM229,133.96v-40.49c0-1.06-3.87-5.08-5.07-5.93-6.37-4.49-8.36-1.6-14.39-1.53-31.74.38-63.31-2.08-95.08-2.08-8.08,2.57-19.67-1.67-26.01,4.99-.65.68-3.45,5.2-3.45,5.55v39.49c22.02-5.26,45.61-20.92,68.45-22.04,25.77-1.26,51.18,15.72,75.55,22.04ZM145,138.96l-94.68,33.81c-4.59,1.48-7.26,5.92-7.41,10.67l27.05,90.04,18.8-6.3c11.46-2.01,22.87-.77,33.6,3.88,8.28,3.59,14.48,10.14,22.64,13.85v-145.96ZM169,138.96v145.96c8.16-3.71,14.37-10.26,22.64-13.85,17.74-7.7,35.35-5.54,52.34,2.86l27.08-91.46c-.62-4.44-3.02-8.25-7.38-9.7l-94.69-33.8Z"/>
</svg>